<svg xmlns="http://www.w3.org/2000/svg" viewBox="0 0 612 200" enable-background="new 0 0 612 200"><path fill-rule="evenodd" clip-rule="evenodd" fill="#C4C4C3" d="M230.1 71.1V69h16.1c4.9-.1 8.8 1 11.7 3.5 2.9 2.5 4.3 6.1 4.3 10.8-.1 8-4.3 13-12.7 14.7v.1c2.5.3 4.5 1.3 6.4 3 1.9 1.7 3.1 3.9 3.2 6.6l.7 13c0 2.2.5 3.4 1.7 3.4.8 0 1.3-.4 1.6-1.2l.4-3.8V117h2.2v3c0 5.6-2.2 8.4-6.7 8.4-4.5-.1-7-3.8-7.1-10.9l-.6-11c-.1-5.1-2.1-7.5-5.8-7.5h-2.1v23.4c0 2.2 1 3.4 3 3.4h1.8v2.2h-17.8v-2.2h1.7c2.1 0 3.1-1.2 3.1-3.4V74.6c0-2.3-1-3.5-3.1-3.5h-2zm-11.7.4h-1.8v50.9c-.1 2.2.9 3.4 3.1 3.4h1.7v2.2h-17.9v-2.2h1.8c2.1 0 3.1-1.2 3.1-3.4V71.5H207c-2.2 0-4.2 1.7-5.6 5.2-1.6 3.2-2.3 7.4-2.2 12.3v.4h-2.1V69.1h31.1v20.4h-2.1V89c-.1-4.7-.9-8.7-2.3-12.2-1.6-3.5-3.4-5.3-5.4-5.3zm47.7-2.4h30.1v20.2h-1.9V89c0-11.7-3.5-17.5-10.4-17.5H279v24.7h1c3.8-.1 5.6-3.9 5.6-11.3v-.3h2.1v25.6h-2.1v-.1c0-7.5-1.8-11.3-5.6-11.3h-1v26.6h4.4c3.2 0 6-1.6 7.9-4.7 1.9-3 2.9-7.3 2.9-12.6v-.4h1.9V128H266v-2.2h1.4c2.2 0 3.2-1.2 3.2-3.4V74.6c0-2.3-1-3.5-3.2-3.5H266v-2h.1zm-23 2.4v24.9h2.2c5.6-.1 8.3-4.4 8.3-13.1 0-7.9-2.9-11.8-8.7-11.8h-1.8zm55.1-2.4h30v20.2h-1.8V89c-.1-11.7-3.6-17.5-10.4-17.5h-4.9v24.7h1.3c3.6-.1 5.4-3.9 5.4-11.3v-.3h2.1v25.6h-2.1v-.1c0-7.5-1.8-11.3-5.4-11.3h-1.3v26.6h4.5c3.4 0 6.1-1.6 8-4.7 1.8-3 2.7-7.3 2.7-12.6v-.4h1.8V128h-30v-2.2h1.6c2.1 0 3.1-1.2 3.1-3.4V74.6c0-2.3-1-3.5-3.1-3.5h-1.6v-2h.1zm42.6 2.4c-2.2 0-4 1.7-5.6 5.2-1.6 3.2-2.3 7.4-2.3 12.3v.4h-1.8V69.1H362v20.4h-2.1V89c0-4.7-.8-8.7-2.2-12.2-1.7-3.5-3.5-5.3-5.6-5.3h-1.7v50.9c-.1 2.2 1 3.4 3.2 3.4h1.6v2.2h-17.9v-2.2h1.7c2.2 0 3.4-1.2 3.4-3.4V71.5h-1.6zm75.1-3c4.8 0 8.7 2.9 11.5 8.7 2.7 5.5 4 12.5 4 21.2s-1.3 15.8-4 21.3c-2.9 5.8-6.8 8.7-11.5 8.8-4.8-.1-8.6-3-11.3-8.8-2.7-5.4-4-12.6-4-21.3 0-8.8 1.3-15.8 3.9-21.2 2.7-5.8 6.5-8.7 11.4-8.7zm-4.8 5.4c-1.2 2.2-1.6 5.7-1.4 10.8v27.6c0 4.9.5 8.4 1.4 10.5 1 1.9 2.6 3 4.8 3 4.3 0 6.4-4.4 6.4-13.4V84.5c0-4.9-.5-8.4-1.6-10.6-1-1.8-2.6-2.7-4.8-2.7-2.2-.1-3.7.8-4.8 2.7zm-15.2.7v41.1c0 8.4-4.4 12.7-13.1 12.7-2.9 0-5.3-1-7.3-3.1-2.2-2.5-3.2-5.7-3.2-9.6 0-2.1.5-3.6 1.7-4.8.8-1.2 1.8-1.7 3.2-1.7 2.6 0 3.9 1.6 3.9 4.7 0 3-1.6 4.8-4.7 5.3 0 1.6.5 3 1.7 4.4 1.3 1.4 2.9 2.1 4.7 2.1 1.8 0 3.1-.7 4-1.8.8-1.3 1.2-3.5 1.2-6.5V74.6c0-2.3-1-3.5-3.1-3.5H383V69h18v2.1h-1.7c-2.2 0-3.4 1.2-3.4 3.5zm58.1-5.5h27.9c4.9-.1 8.8 1 11.7 3.5 2.9 2.5 4.3 6.1 4.3 10.8 0 8-4.3 13-12.8 14.7v.1c2.6.3 4.8 1.3 6.7 3 1.8 1.7 2.9 3.9 3 6.6l.6 13c0 2.2.5 3.4 1.7 3.4l1.6-1.2.3-3.8v-2.1h2.5v3c-.1 5.6-2.5 8.4-6.9 8.4-4.4-.1-6.9-3.8-7.3-10.9l-.5-11c-.3-5.1-2.2-7.5-5.7-7.5h-2.2v23.4c0 2.2 1 3.4 3 3.4h1.8v2.2h-17.8v-2.2h1.7c2.2 0 3.4-1.2 3.4-3.4V74.6c0-2.3-1-3.5-3.2-3.5h-3.1c-1.9 0-3 1.4-3 4.4v39.3c0 9-3.6 13.5-11 13.6-4.5-.1-7.9-1.4-10.4-3.9-2.6-2.5-3.9-5.7-3.9-9.7V74.6c0-2.3-1-3.5-3.1-3.5h-1.7V69h17.8v2.1h-1.6c-2.2 0-3.2 1.2-3.2 3.5v40.7c0 6.7 2.3 10.1 7.1 10.1s7.3-3.4 7.3-10.1V75.5c0-3-.9-4.4-2.9-4.4H454v-2zm24.7 2.4v24.9h2.2c5.6-.1 8.3-4.4 8.3-13.1 0-7.9-2.9-11.8-8.4-11.8h-2.1zm44.3-.4V69h12.3v2.1h-1.6c-2.2 0-3.4 1.4-3.4 4.4v52.6h-2.9L509 81.9v39.6c0 2.9 1 4.3 3.2 4.3h1.6v2.2h-12.5v-2.2h1.6c2.2 0 3.2-1.4 3.2-4.3V74.9c0-2.5-.9-3.8-2.7-3.8h-2.1V69h11.3l14.8 38h.3V75.5c0-3-1.2-4.4-3.4-4.4H523zm42.5 0V69h17.9v2.1h-1.7c-2.2 0-3.2 1.2-3.2 3.4v50.9h4.3c6.6 0 10-5.8 10.1-17.4v-.3h2.1V128h-45.2v-2.2h.3c2.6 0 4-.8 4.2-2.5l-1.7-9.6h-10l-1.7 9.6c-.1.9.1 1.6.8 1.9l3 .5h.4v2.2h-12.6v-2.2h.5l3.1-.8 1.7-3.4 10.1-53.2h3.9l10.6 53.1c.4 2.9 1.7 4.3 3.6 4.3h1.2c2.1 0 3.1-1.2 3.1-3.4V74.5c0-2.2-1-3.4-3.1-3.4h-1.7zm-18.1 13.8L543 111h9.1l-4.4-26.1h-.3zM32.2 71.5h-.1c-1.9-.1-3 .5-2.9 2.1v1.6l6.8 35.9h.1l4.4-23.6-2.2-12.1-1-3.1-2.6-.8h-.4V69H50v2.5h-.1c-2.5-.1-3.6.8-3.5 3l.1 1.8 6.6 34.4h.3l6.2-34.5.3-1.6-.8-2.3-3.1-.8h-.5V69H69v2.5h-.8l-3.4.8c-.9.7-1.4 2.2-1.8 4.5l-10.9 51.9h-3.4l-6.6-34.1-6.9 34.1h-3.4L21.3 75.4l-1.4-3.1-3.2-.8h-.3V69h15.8v2.5zm46.9-3l10.6 53.1c.4 2.9 1.7 4.4 3.6 4.5h1.2c2.2-.1 3.2-1.3 3.2-3.4V74.9c0-2.2-1-3.4-3.2-3.4h-1.6V69h17.8v2.5H109c-2.2 0-3.2 1.2-3.1 3.4v50.9h4.3c6.6 0 10-5.8 10-17.6v-.2h2.1v20.1H77.1v-1.9h.5c2.6-.1 3.9-1 3.9-2.6L80 114H69.8l-1.7 9.6c0 .9.3 1.4.8 1.8l3.1.8h.1v1.9H59.6v-1.9h.8l3-.8c.9-.6 1.4-1.7 1.7-3.4l10.4-53.5h3.6zM74.6 85l-4.3 26.1h9L74.8 85h-.2zm48.7-13.5V69h17.8v2.5h-1.7c-2.2 0-3.2 1.2-3.1 3.4v50.9h4.3c6.6-.1 10-6.1 10.1-17.6v-.2h1.8v20.1h-29.2v-1.9h1.7c2.1-.1 3.1-1.3 3.1-3.4V74.9c0-2.2-1-3.4-3.1-3.4h-1.7zm69.3-2.4h1.3v20.4H192V89c-.1-11.8-3.4-17.8-10-17.8-1.9 0-3.5.7-4.5 2.1-1.2 1.3-1.7 3.2-1.7 5.7s.8 4.8 2.3 7l7.1 6.4c3.8 3 6.6 5.8 8.3 8.7 2.3 3.5 3.5 7.8 3.5 12.7 0 4.9-1.4 8.7-4.2 11.3-2.5 2.2-5.6 3.4-9.6 3.5-3.5 0-7-1.2-10.4-3.5l-1.4 3H170v-20.2h1.9v.6c-.1 6.4 1.3 11 4.2 14 1.8 2.2 4 3.4 6.6 3.4 2.5 0 4.5-.9 6-2.6 1.2-1.7 1.8-3.9 1.8-6.6 0-5.8-3.5-11.4-10.4-16.5l-7.4-7.3c-2.2-3.2-3.2-6.7-3.1-10.8-.1-4.3 1-7.7 3.5-10.1 2.1-2.2 4.8-3.4 8.3-3.4 3.8 0 6.9 1.2 9.5 3.5l1.7-3z"/></svg>